<?xml version="1.0" ?><svg enable-background="new 0 0 64 64" id="Layer_1" version="1.1" viewBox="0 0 64 64" xml:space="preserve" xmlns="http://www.w3.org/2000/svg" xmlns:xlink="http://www.w3.org/1999/xlink"><g><g><path d="M61.5,15.2v33.6h-59V15.2H61.5 M61.6,12.7H2.4c-1.3,0-2.4,1.1-2.4,2.4v33.9c0,1.3,1.1,2.4,2.4,2.4h59.3    c1.3,0,2.4-1.1,2.4-2.4V15.1C64,13.8,62.9,12.7,61.6,12.7L61.6,12.7z" fill="#20293B"/></g><rect fill="none" height="18.8" stroke="#20293B" stroke-linejoin="round" stroke-miterlimit="10" stroke-width="1.5" width="48.9" x="7.5" y="19.3"/><polygon fill="none" points="48.9,43.8    15.1,43.8 13.2,49.4 50.8,49.4  " stroke="#20293B" stroke-linejoin="round" stroke-miterlimit="10" stroke-width="1.5"/><g><defs><path d="M44.2,31.5H19.8c-1.6,0-2.8-1.3-2.8-2.8v0c0-1.6,1.3-2.8,2.8-2.8h24.5c1.6,0,2.8,1.3,2.8,2.8v0     C47.1,30.3,45.8,31.5,44.2,31.5z" id="XMLID_6_"/></defs><clipPath id="XMLID_2_"><use overflow="visible" xlink:href="#XMLID_6_"/></clipPath><path clip-path="url(#XMLID_2_)" d="M43.3,33.4    c-2.6,0-4.7-2.1-4.7-4.7s2.1-4.7,4.7-4.7" fill="none" stroke="#20293B" stroke-linejoin="round" stroke-miterlimit="10"/><path clip-path="url(#XMLID_2_)" d="M20.7,33.4    c2.6,0,4.7-2.1,4.7-4.7S23.3,24,20.7,24" fill="none" stroke="#20293B" stroke-linejoin="round" stroke-miterlimit="10"/><path clip-path="url(#XMLID_2_)" d="M41.9,34.4    c-3.1,0-5.6-2.5-5.6-5.6s2.5-5.6,5.6-5.6" fill="none" stroke="#20293B" stroke-linejoin="round" stroke-miterlimit="10"/><use fill="none" overflow="visible" stroke="#20293B" stroke-linejoin="round" stroke-miterlimit="10" stroke-width="1.5" xlink:href="#XMLID_6_"/></g><circle cx="44.2" cy="28.7" fill="none" r="2.8" stroke="#20293B" stroke-linejoin="round" stroke-miterlimit="10" stroke-width="1.5"/><circle cx="19.8" cy="28.7" fill="none" r="2.8" stroke="#20293B" stroke-linejoin="round" stroke-miterlimit="10" stroke-width="1.5"/><line fill="none" stroke="#20293B" stroke-linejoin="round" stroke-miterlimit="10" stroke-width="1.5" x1="43.3" x2="44.2" y1="43.8" y2="49.4"/><line fill="none" stroke="#20293B" stroke-linejoin="round" stroke-miterlimit="10" stroke-width="1.5" x1="20.7" x2="19.8" y1="43.8" y2="49.4"/><rect fill="#20293B" height="0.9" width="0.9" x="46.6" y="46.1"/><rect fill="#20293B" height="0.9" width="0.9" x="16.5" y="46.1"/></g></svg>